<svg version="1.1" xmlns="http://www.w3.org/2000/svg" viewBox="0 0 2158.558141107217 1492.4372811378205" width="2158.558141107217" height="1492.4372811378205">
  <!-- svg-source:excalidraw -->
  
  <defs>
    <style class="style-fonts">
      @font-face {
        font-family: "Virgil";
        src: url("https://excalidraw.com/Virgil.woff2");
      }
      @font-face {
        font-family: "Cascadia";
        src: url("https://excalidraw.com/Cascadia.woff2");
      }
      @font-face {
        font-family: "Assistant";
        src: url("https://excalidraw.com/Assistant-Regular.woff2");
      }
    </style>
    
  </defs>
  <rect x="0" y="0" width="2158.558141107217" height="1492.4372811378205" fill="#ffffff"></rect><g stroke-linecap="round" transform="translate(10 94.6801882289717) rotate(0 1069.2790705536086 693.8785464544244)"><path d="M32 0 C638.8 6.77, 1245.25 6.67, 2106.56 0 M32 0 C703.51 -7.64, 1375.33 -7.53, 2106.56 0 M2106.56 0 C2127.05 -1.31, 2138.34 9.82, 2138.56 32 M2106.56 0 C2129.29 -0.16, 2139.84 11.71, 2138.56 32 M2138.56 32 C2143.57 447.09, 2143.69 860.11, 2138.56 1355.76 M2138.56 32 C2137.2 540.95, 2137.23 1049.95, 2138.56 1355.76 M2138.56 1355.76 C2137.43 1377.69, 2127.5 1387.36, 2106.56 1387.76 M2138.56 1355.76 C2137.69 1374.86, 2129.1 1386.93, 2106.56 1387.76 M2106.56 1387.76 C1563.83 1389.13, 1021.59 1389.06, 32 1387.76 M2106.56 1387.76 C1390.04 1380.96, 672.72 1381.44, 32 1387.76 M32 1387.76 C11.71 1389.06, -0.55 1375.95, 0 1355.76 M32 1387.76 C11.17 1389.78, 0.98 1376.58, 0 1355.76 M0 1355.76 C-4.03 1071.18, -5.04 785.09, 0 32 M0 1355.76 C-5.13 957.34, -4.83 558.99, 0 32 M0 32 C1.7 11.02, 10.42 0.13, 32 0 M0 32 C-1.12 12.34, 10.52 1.42, 32 0" stroke="#1e1e1e" stroke-width="1" fill="none"></path></g><g transform="translate(926.9417169630897 10) rotate(0 141.10000610351562 22.5)"><text x="0" y="31.536" font-family="Virgil, Segoe UI Emoji" font-size="36px" fill="#1e1e1e" text-anchor="start" style="white-space: pre;" direction="ltr" dominant-baseline="alphabetic">Delivery Cluster</text></g><g stroke-linecap="round" transform="translate(586.7104412206145 222.6538067351937) rotate(0 163.54260299757198 47.7206379567383)"><path d="M23.86 0 C133.51 -1.09, 243.83 -2.53, 303.22 0 M23.86 0 C102.86 -0.72, 182.43 -0.54, 303.22 0 M303.22 0 C320.35 -0.14, 328.2 8.86, 327.09 23.86 M303.22 0 C319.43 2.03, 324.8 8.95, 327.09 23.86 M327.09 23.86 C329.06 41.74, 326.46 61.92, 327.09 71.58 M327.09 23.86 C326.82 36.66, 327.19 48.67, 327.09 71.58 M327.09 71.58 C326.33 85.55, 320.18 94.72, 303.22 95.44 M327.09 71.58 C326.2 86.51, 319.62 95.08, 303.22 95.44 M303.22 95.44 C233.16 94.47, 160.46 95.67, 23.86 95.44 M303.22 95.44 C230.01 97.74, 155.79 96.81, 23.86 95.44 M23.86 95.44 C8.39 97.2, 0.86 87.04, 0 71.58 M23.86 95.44 C6.01 97.29, -1.61 88.17, 0 71.58 M0 71.58 C0.48 56.35, -1.03 37.38, 0 23.86 M0 71.58 C0.45 59.57, -0.52 47.27, 0 23.86 M0 23.86 C-0.97 9.41, 7.83 1.23, 23.86 0 M0 23.86 C-0.91 9.5, 7.94 -2.11, 23.86 0" stroke="#1e1e1e" stroke-width="1" fill="none"></path></g><g transform="translate(674.5697098676005 235.374444691932) rotate(0 75.68333435058594 35)"><text x="75.68333435058594" y="24.528" font-family="Virgil, Segoe UI Emoji" font-size="28px" fill="#1e1e1e" text-anchor="middle" style="white-space: pre;" direction="ltr" dominant-baseline="alphabetic">artefact</text><text x="75.68333435058594" y="59.528" font-family="Virgil, Segoe UI Emoji" font-size="28px" fill="#1e1e1e" text-anchor="middle" style="white-space: pre;" direction="ltr" dominant-baseline="alphabetic">enumerator</text></g><g stroke-linecap="round"><g transform="translate(837.2437904934909 212.7120071608731) rotate(0 -73.05719968392646 -36.46167307552605)"><path d="M-0.65 -0.19 C-1.28 -11.95, 19.85 -58.27, -3.33 -69.47 C-26.5 -80.67, -115.37 -79.55, -139.69 -67.39 C-164.01 -55.24, -147.81 -8.41, -149.26 3.47 M1.21 -1.34 C0.34 -12.37, 19.2 -57.01, -4.45 -67.87 C-28.11 -78.73, -116.61 -78.52, -140.72 -66.49 C-164.82 -54.46, -147.62 -7.48, -149.08 4.31" stroke="#1e1e1e" stroke-width="1" fill="none"></path></g><g transform="translate(837.2437904934909 212.7120071608731) rotate(0 -73.05719968392646 -36.46167307552605)"><path d="M-160.27 -18.05 C-156.6 -10.98, -152.28 -3.67, -149.08 4.31 M-160.27 -18.05 C-157.06 -12.82, -154.49 -7.06, -149.08 4.31" stroke="#1e1e1e" stroke-width="1" fill="none"></path></g><g transform="translate(837.2437904934909 212.7120071608731) rotate(0 -73.05719968392646 -36.46167307552605)"><path d="M-143.28 -20.01 C-145.35 -12.37, -146.79 -4.4, -149.08 4.31 M-143.28 -20.01 C-144.06 -14.39, -145.47 -8.17, -149.08 4.31" stroke="#1e1e1e" stroke-width="1" fill="none"></path></g></g><mask></mask><g transform="translate(747.7675943246063 143.60195001292573) rotate(0 19.524999618530273 12.5)"><text x="0" y="17.52" font-family="Virgil, Segoe UI Emoji" font-size="20px" fill="#1e1e1e" text-anchor="start" style="white-space: pre;" direction="ltr" dominant-baseline="alphabetic">cron</text></g><g stroke-linecap="round" transform="translate(1045.0274015967889 166.32986882787918) rotate(0 161.5542430827079 75.88260691039545)"><path d="M32 0 C101.28 0.69, 171.97 1.85, 291.11 0 M32 0 C108.08 -0.23, 183.16 -0.59, 291.11 0 M291.11 0 C314.18 1.17, 321.41 12.36, 323.11 32 M291.11 0 C311.75 -1.04, 324.39 9.79, 323.11 32 M323.11 32 C323.16 63.47, 322.16 94.96, 323.11 119.77 M323.11 32 C323.18 49.39, 323.78 67.48, 323.11 119.77 M323.11 119.77 C322.17 141.71, 311.32 152.68, 291.11 151.77 M323.11 119.77 C323.44 139.26, 314.57 150.93, 291.11 151.77 M291.11 151.77 C218.08 152.4, 142.05 153.2, 32 151.77 M291.11 151.77 C189.95 151.95, 89.6 151.54, 32 151.77 M32 151.77 C11.87 149.82, -1.37 141.12, 0 119.77 M32 151.77 C12.91 150.04, 0.19 140.07, 0 119.77 M0 119.77 C0.98 85.86, 0.76 51.48, 0 32 M0 119.77 C-0.34 87.72, 0.05 53.42, 0 32 M0 32 C-1.4 8.83, 9 -0.56, 32 0 M0 32 C0.94 9.84, 10.02 -0.27, 32 0" stroke="#1e1e1e" stroke-width="1" fill="none"></path></g><g stroke-linecap="round"><g transform="translate(914.7956472157584 247.17059074132476) rotate(0 66.07535859918062 -0.3915245807052088)"><path d="M0.73 -0.08 C22.84 0.09, 110.62 0.35, 132.49 0.54 M-0.34 -1.17 C21.67 -1.31, 109.96 -1.37, 131.9 -1.29" stroke="#1e1e1e" stroke-width="1" fill="none"></path></g><g transform="translate(914.7956472157584 247.17059074132476) rotate(0 66.07535859918062 -0.3915245807052088)"><path d="M108.4 7.23 C115.09 5.74, 122.92 2.42, 131.9 -1.29 M108.4 7.23 C118.47 4.41, 125.87 1.36, 131.9 -1.29" stroke="#1e1e1e" stroke-width="1" fill="none"></path></g><g transform="translate(914.7956472157584 247.17059074132476) rotate(0 66.07535859918062 -0.3915245807052088)"><path d="M108.41 -9.87 C115.03 -6.41, 122.86 -4.79, 131.9 -1.29 M108.41 -9.87 C118.31 -6.06, 125.71 -2.47, 131.9 -1.29" stroke="#1e1e1e" stroke-width="1" fill="none"></path></g></g><mask></mask><g transform="translate(955.2877844969275 249.52457029521497) rotate(0 22.125 12.5)"><text x="0" y="17.52" font-family="Virgil, Segoe UI Emoji" font-size="20px" fill="#1e1e1e" text-anchor="start" style="white-space: pre;" direction="ltr" dominant-baseline="alphabetic">read</text></g><g stroke-linecap="round" transform="translate(547.9374228807646 343.94376154190354) rotate(0 89.97328614760045 32.31084861654165)"><path d="M16.16 0 C70.47 -2.18, 122.12 1.55, 163.79 0 M16.16 0 C68.79 -1.7, 122.57 -1.63, 163.79 0 M163.79 0 C175.82 -1.24, 178.81 5.98, 179.95 16.16 M163.79 0 C174.12 -0.46, 179.08 3.15, 179.95 16.16 M179.95 16.16 C178.98 27.96, 179.52 37.99, 179.95 48.47 M179.95 16.16 C179.91 26.04, 180.69 37.16, 179.95 48.47 M179.95 48.47 C179.66 60.92, 175.6 65.92, 163.79 64.62 M179.95 48.47 C179.31 57.93, 175.06 66.64, 163.79 64.62 M163.79 64.62 C114.8 61.98, 63.17 64.57, 16.16 64.62 M163.79 64.62 C134.84 63.88, 104.01 64.19, 16.16 64.62 M16.16 64.62 C7.06 63.2, 1.7 59.59, 0 48.47 M16.16 64.62 C5.1 64.78, -1.12 60.91, 0 48.47 M0 48.47 C1.14 38.97, -2.03 28.09, 0 16.16 M0 48.47 C0.68 41.38, -0.01 34.89, 0 16.16 M0 16.16 C-1.22 4.66, 5.47 -1.91, 16.16 0 M0 16.16 C0.78 7.62, 4.67 -0.48, 16.16 0" stroke="#1e1e1e" stroke-width="1" fill="none"></path></g><g transform="translate(575.7744616888622 363.8273606905443) rotate(0 59.45833206176758 12.5)"><text x="0" y="17.52" font-family="Virgil, Segoe UI Emoji" font-size="20px" fill="#1e1e1e" text-anchor="start" style="white-space: pre;" direction="ltr" dominant-baseline="alphabetic">backlog item</text></g><g stroke-linecap="round" transform="translate(545.4519729871845 419.0043483280226) rotate(0 89.97328614760045 32.31084861654165)"><path d="M16.16 0 C46.92 -2.99, 77.03 -1.88, 163.79 0 M16.16 0 C54.39 -0.06, 90.8 0.86, 163.79 0 M163.79 0 C174.17 -0.4, 179.2 3.45, 179.95 16.16 M163.79 0 C175.76 -0.82, 179.06 4.41, 179.95 16.16 M179.95 16.16 C180.51 25.41, 180.81 37.19, 179.95 48.47 M179.95 16.16 C180.1 24.1, 180.77 31.01, 179.95 48.47 M179.95 48.47 C179.39 58.1, 175 66.38, 163.79 64.62 M179.95 48.47 C180.93 58.73, 172.61 66.47, 163.79 64.62 M163.79 64.62 C127.86 64.14, 95.84 67.46, 16.16 64.62 M163.79 64.62 C131.4 63.25, 98.19 64.14, 16.16 64.62 M16.16 64.62 C5.14 64.76, -0.97 60.69, 0 48.47 M16.16 64.62 C5.24 66.04, -0.91 60.78, 0 48.47 M0 48.47 C-1.54 37.13, -0.27 29.94, 0 16.16 M0 48.47 C-0.52 39.57, 0.14 30.45, 0 16.16 M0 16.16 C0.68 7.33, 4.76 -0.42, 16.16 0 M0 16.16 C-0.03 3.45, 6.14 1.85, 16.16 0" stroke="#1e1e1e" stroke-width="1" fill="none"></path></g><g transform="translate(573.289011795282 438.88794747666384) rotate(0 59.45833206176758 12.5)"><text x="0" y="17.52" font-family="Virgil, Segoe UI Emoji" font-size="20px" fill="#1e1e1e" text-anchor="start" style="white-space: pre;" direction="ltr" dominant-baseline="alphabetic">backlog item</text></g><g stroke-linecap="round" transform="translate(485.61193313974445 593.4829308573478) rotate(0 209.618047229563 55.67407761619461)"><path d="M27.84 0 C105.39 1.38, 183.61 1.47, 391.4 0 M27.84 0 C114.18 -0.81, 200.53 -1.29, 391.4 0 M391.4 0 C411 -0.72, 418.47 8.43, 419.24 27.84 M391.4 0 C410.44 -0.36, 418.16 9.98, 419.24 27.84 M419.24 27.84 C417.89 43.28, 418.76 54.74, 419.24 83.51 M419.24 27.84 C419.25 48.65, 419.75 71.49, 419.24 83.51 M419.24 83.51 C420.09 101.62, 408.26 112.96, 391.4 111.35 M419.24 83.51 C417.63 102.75, 411.34 109.11, 391.4 111.35 M391.4 111.35 C306.25 113.68, 222.43 114.62, 27.84 111.35 M391.4 111.35 C308.11 111.79, 224.67 112.21, 27.84 111.35 M27.84 111.35 C9.15 112.58, -0.79 103.41, 0 83.51 M27.84 111.35 C9.27 109.24, -1.61 99.96, 0 83.51 M0 83.51 C-0.56 70.88, -0.08 58.15, 0 27.84 M0 83.51 C0.31 69.8, -0.34 53.94, 0 27.84 M0 27.84 C-0.02 7.6, 9.94 1.61, 27.84 0 M0 27.84 C1.65 10, 11.1 -0.25, 27.84 0" stroke="#1e1e1e" stroke-width="1" fill="none"></path></g><g transform="translate(604.3799818951861 631.6570084735424) rotate(0 90.8499984741211 17.5)"><text x="90.8499984741211" y="24.528" font-family="Virgil, Segoe UI Emoji" font-size="28px" fill="#1e1e1e" text-anchor="middle" style="white-space: pre;" direction="ltr" dominant-baseline="alphabetic">backlog items</text></g><g stroke-linecap="round"><g transform="translate(751.8665628704107 319.7371750262698) rotate(0 0.5016247934777311 138.69327040406301)"><path d="M0.76 -0.75 C0.53 45.69, -0.51 231.75, -0.68 278.13 M-0.31 1.48 C-0.2 47.57, 1.81 229.99, 1.68 276.2" stroke="#1e1e1e" stroke-width="1" fill="none"></path></g><g transform="translate(751.8665628704107 319.7371750262698) rotate(0 0.5016247934777311 138.69327040406301)"><path d="M-6.99 252.75 C-5.24 259.9, -0.32 268.99, 1.68 276.2 M-6.99 252.75 C-4.13 259.04, -2.61 265.54, 1.68 276.2" stroke="#1e1e1e" stroke-width="1" fill="none"></path></g><g transform="translate(751.8665628704107 319.7371750262698) rotate(0 0.5016247934777311 138.69327040406301)"><path d="M10.11 252.66 C5.78 259.96, 4.62 269.07, 1.68 276.2 M10.11 252.66 C8.18 258.81, 4.92 265.34, 1.68 276.2" stroke="#1e1e1e" stroke-width="1" fill="none"></path></g></g><mask></mask><g stroke-linecap="round"><g transform="translate(728.8781751333977 376.7517001371614) rotate(0 11.376142133820395 0.15253125088293018)"><path d="M-0.31 0.16 C3.47 0.2, 19.18 0.01, 23.06 -0.11 M0.53 -0.23 C4.21 -0.08, 18.91 0.53, 22.58 0.53" stroke="#1e1e1e" stroke-width="1" fill="none"></path></g></g><mask></mask><g stroke-linecap="round"><g transform="translate(724.9014553036691 450.3210169871329) rotate(0 12.61433815128703 -0.38021480167765276)"><path d="M-0.11 -0.11 C4.29 -0.23, 21.61 -0.52, 26.05 -0.53 M-0.82 -0.64 C3.51 -0.73, 20.99 -0.27, 25.52 -0.11" stroke="#1e1e1e" stroke-width="1" fill="none"></path></g></g><mask></mask><g transform="translate(764.6686536009515 444.38503745538014) rotate(0 38 12.5)"><text x="0" y="17.52" font-family="Virgil, Segoe UI Emoji" font-size="20px" fill="#1e1e1e" text-anchor="start" style="white-space: pre;" direction="ltr" dominant-baseline="alphabetic">creates</text></g><g transform="translate(623.2887042871412 550.292915062344) rotate(0 8.225000381469727 12.5)"><text x="0" y="17.52" font-family="Virgil, Segoe UI Emoji" font-size="20px" fill="#1e1e1e" text-anchor="start" style="white-space: pre;" direction="ltr" dominant-baseline="alphabetic">...</text></g><g stroke-linecap="round" transform="translate(1706.0550346844475 589.0651186792991) rotate(0 163.44357794427833 61.9503884143636)"><path d="M30.98 0 C123.65 1.14, 217.42 0.07, 295.91 0 M30.98 0 C118.68 -1.59, 206.89 -1.24, 295.91 0 M295.91 0 C316.28 1.68, 327.93 11.63, 326.89 30.98 M295.91 0 C315.93 -1.31, 327.39 12.34, 326.89 30.98 M326.89 30.98 C328.36 50.81, 327.34 74.65, 326.89 92.93 M326.89 30.98 C327.44 42.79, 326.55 55.65, 326.89 92.93 M326.89 92.93 C328.56 112.15, 318.26 124.25, 295.91 123.9 M326.89 92.93 C326.6 113.73, 315.44 125.57, 295.91 123.9 M295.91 123.9 C219.18 123.07, 138.87 121.97, 30.98 123.9 M295.91 123.9 C241.06 123.02, 185.34 123.22, 30.98 123.9 M30.98 123.9 C9.11 123.17, 0.09 111.67, 0 92.93 M30.98 123.9 C11.1 126.14, -0.72 113.09, 0 92.93 M0 92.93 C2.13 75.85, 1.15 57.49, 0 30.98 M0 92.93 C0.32 75.97, -0.59 56.16, 0 30.98 M0 30.98 C0.33 8.35, 11.83 1.84, 30.98 0 M0 30.98 C-1.32 8.47, 8.9 0.77, 30.98 0" stroke="#1e1e1e" stroke-width="1" fill="none"></path></g><g transform="translate(1805.4652798040188 616.0155070936628) rotate(0 64.03333282470703 35)"><text x="64.03333282470703" y="24.528" font-family="Virgil, Segoe UI Emoji" font-size="28px" fill="#1e1e1e" text-anchor="middle" style="white-space: pre;" direction="ltr" dominant-baseline="alphabetic">backlog</text><text x="64.03333282470703" y="59.528" font-family="Virgil, Segoe UI Emoji" font-size="28px" fill="#1e1e1e" text-anchor="middle" style="white-space: pre;" direction="ltr" dominant-baseline="alphabetic">controller</text></g><g stroke-linecap="round"><g transform="translate(1705.0550346844475 645.3037691547495) rotate(0 -399.26558573017314 -0.3312241878919622)"><path d="M-0.56 0.37 C-133.92 0.49, -666.8 0.77, -799.88 0.55 M1.35 -0.49 C-131.64 -0.7, -664.01 -1.34, -797.52 -1.29" stroke="#1e1e1e" stroke-width="1" fill="none"></path></g><g transform="translate(1705.0550346844475 645.3037691547495) rotate(0 -399.26558573017314 -0.3312241878919622)"><path d="M-774.02 -9.83 C-780.97 -8.31, -788.21 -4.16, -797.52 -1.29 M-774.02 -9.83 C-779.25 -7.19, -783.75 -5.51, -797.52 -1.29" stroke="#1e1e1e" stroke-width="1" fill="none"></path></g><g transform="translate(1705.0550346844475 645.3037691547495) rotate(0 -399.26558573017314 -0.3312241878919622)"><path d="M-774.03 7.27 C-780.95 3.3, -788.19 1.96, -797.52 -1.29 M-774.03 7.27 C-779.41 6.15, -783.92 4.07, -797.52 -1.29" stroke="#1e1e1e" stroke-width="1" fill="none"></path></g></g><mask></mask><g transform="translate(1272.067128148442 612.3575753694956) rotate(0 28.366666793823242 12.5)"><text x="0" y="17.52" font-family="Virgil, Segoe UI Emoji" font-size="20px" fill="#1e1e1e" text-anchor="start" style="white-space: pre;" direction="ltr" dominant-baseline="alphabetic">watch</text></g><g stroke-linecap="round" transform="translate(1719.2496320793898 869.0323798186885) rotate(0 83.03988234265762 44.37581014078518)"><path d="M22.19 0 C50.29 1.68, 80.87 -0.46, 143.89 0 M22.19 0 C68.66 -1.36, 115.91 0.09, 143.89 0 M143.89 0 C159.54 -0.44, 164.39 9.01, 166.08 22.19 M143.89 0 C157.08 0.68, 167.46 5.16, 166.08 22.19 M166.08 22.19 C164.58 32.63, 165.19 44.41, 166.08 66.56 M166.08 22.19 C166.33 32.41, 165.97 43.23, 166.08 66.56 M166.08 66.56 C165.95 82.59, 157.9 90.1, 143.89 88.75 M166.08 66.56 C166.07 79.25, 157.07 86.64, 143.89 88.75 M143.89 88.75 C116.78 88.69, 90.87 88.03, 22.19 88.75 M143.89 88.75 C112.14 88.56, 79.39 87.38, 22.19 88.75 M22.19 88.75 C7.37 87.07, 0.66 82.97, 0 66.56 M22.19 88.75 C9.04 89.47, 1.82 81.1, 0 66.56 M0 66.56 C1.83 53.53, -1.97 44.34, 0 22.19 M0 66.56 C-0.91 56.83, -0.96 49.05, 0 22.19 M0 22.19 C-1.6 6.86, 8.55 -1.1, 22.19 0 M0 22.19 C-2.27 9.65, 6.4 -2.19, 22.19 0" stroke="#1e1e1e" stroke-width="1" fill="none"></path></g><g transform="translate(1749.126415144473 885.7282291785875) rotate(0 51.86666488647461 25)"><text x="0" y="17.52" font-family="Virgil, Segoe UI Emoji" font-size="20px" fill="#1e1e1e" text-anchor="start" style="white-space: pre;" direction="ltr" dominant-baseline="alphabetic">replica-set</text><text x="0" y="42.519999999999996" font-family="Virgil, Segoe UI Emoji" font-size="20px" fill="#1e1e1e" text-anchor="start" style="white-space: pre;" direction="ltr" dominant-baseline="alphabetic">BDBA</text></g><g stroke-linecap="round" transform="translate(1718.3447246133283 1076.7697374288466) rotate(0 83.03988234265762 44.37581014078518)"><path d="M22.19 0 C71.66 1.21, 119.07 -0.38, 143.89 0 M22.19 0 C52.22 -1.29, 80.54 -0.26, 143.89 0 M143.89 0 C157.29 0.59, 167.28 5.45, 166.08 22.19 M143.89 0 C157.11 0.02, 168.32 5.67, 166.08 22.19 M166.08 22.19 C164.46 37.56, 166.23 49.29, 166.08 66.56 M166.08 22.19 C165.8 36.41, 165.47 50.08, 166.08 66.56 M166.08 66.56 C166.07 79.52, 157.28 86.92, 143.89 88.75 M166.08 66.56 C164.17 80.71, 159.63 87.92, 143.89 88.75 M143.89 88.75 C110.08 88.1, 75.81 88.69, 22.19 88.75 M143.89 88.75 C95.53 87.66, 47.52 89.3, 22.19 88.75 M22.19 88.75 C8.83 89.38, 1.58 81.14, 0 66.56 M22.19 88.75 C6.34 89.13, 0.08 83.55, 0 66.56 M0 66.56 C-1.56 58.66, 2.27 46.59, 0 22.19 M0 66.56 C-0.52 56.57, 0.85 46.55, 0 22.19 M0 22.19 C-1.97 9.36, 6.53 -1.9, 22.19 0 M0 22.19 C-1.07 8.29, 7.87 -1.12, 22.19 0" stroke="#1e1e1e" stroke-width="1" fill="none"></path></g><g transform="translate(1748.2215076784114 1093.4655867887461) rotate(0 51.86666488647461 25)"><text x="0" y="17.52" font-family="Virgil, Segoe UI Emoji" font-size="20px" fill="#1e1e1e" text-anchor="start" style="white-space: pre;" direction="ltr" dominant-baseline="alphabetic">replica-set</text><text x="0" y="42.519999999999996" font-family="Virgil, Segoe UI Emoji" font-size="20px" fill="#1e1e1e" text-anchor="start" style="white-space: pre;" direction="ltr" dominant-baseline="alphabetic">Issues</text></g><g stroke-linecap="round"><g transform="translate(1952.4080508436336 713.2629181968084) rotate(0 0.5735279861837626 300.9970071561931)"><path d="M-0.33 -0.68 C-0.39 99.63, 0.12 502.34, 0.26 602.68 M1.69 1.58 C1.44 101.51, -0.27 500.95, -0.55 601.11" stroke="#1e1e1e" stroke-width="1" fill="none"></path></g></g><mask></mask><g transform="translate(1651.9913286394221 882.2240904550424) rotate(0 25.21666717529297 12.5)"><text x="0" y="17.52" font-family="Virgil, Segoe UI Emoji" font-size="20px" fill="#1e1e1e" text-anchor="start" style="white-space: pre;" direction="ltr" dominant-baseline="alphabetic">scale</text></g><g stroke-linecap="round" transform="translate(1287.8461110976086 865.7979529095671) rotate(0 62.66778551826246 46.76700411810634)"><path d="M23.38 0 C48.23 -2.03, 75.57 -1.73, 101.95 0 M23.38 0 C48.59 0.77, 76.13 0.01, 101.95 0 M101.95 0 C117.7 -0.89, 127.01 6.37, 125.34 23.38 M101.95 0 C119.5 0.4, 125.05 7.95, 125.34 23.38 M125.34 23.38 C126.91 34.35, 127.02 46.89, 125.34 70.15 M125.34 23.38 C124.18 32.85, 125.42 42.51, 125.34 70.15 M125.34 70.15 C124.77 85.5, 116.32 92.81, 101.95 93.53 M125.34 70.15 C125.44 83.54, 118.32 95.77, 101.95 93.53 M101.95 93.53 C79.15 94.18, 61.33 94.96, 23.38 93.53 M101.95 93.53 C75.47 93.61, 49.93 94.4, 23.38 93.53 M23.38 93.53 C6.04 91.64, 0.33 83.76, 0 70.15 M23.38 93.53 C9.53 95.65, -1.32 83.88, 0 70.15 M0 70.15 C-0.69 60.18, -1.26 45.93, 0 23.38 M0 70.15 C-0.26 51.92, 0.41 32.44, 0 23.38 M0 23.38 C-0.87 6.83, 7.81 -0.32, 23.38 0 M0 23.38 C-2.17 5.61, 5.73 1.46, 23.38 0" stroke="#1e1e1e" stroke-width="1" fill="none"></path></g><g transform="translate(1321.1138969973408 887.5649570276735) rotate(0 29.399999618530273 25)"><text x="29.399999618530273" y="17.52" font-family="Virgil, Segoe UI Emoji" font-size="20px" fill="#1e1e1e" text-anchor="middle" style="white-space: pre;" direction="ltr" dominant-baseline="alphabetic">Pod A</text><text x="29.399999618530273" y="42.519999999999996" font-family="Virgil, Segoe UI Emoji" font-size="20px" fill="#1e1e1e" text-anchor="middle" style="white-space: pre;" direction="ltr" dominant-baseline="alphabetic">BDBA</text></g><g stroke-linecap="round" transform="translate(1432.4728192106913 865.2656489890112) rotate(0 62.66778551826246 46.76700411810634)"><path d="M23.38 0 C40.89 1.75, 55.28 -0.82, 101.95 0 M23.38 0 C47.1 0.14, 71.49 -0.12, 101.95 0 M101.95 0 C119.24 0.35, 125.09 7.93, 125.34 23.38 M101.95 0 C116.42 1.67, 125.19 9.21, 125.34 23.38 M125.34 23.38 C123.82 34.17, 123.81 46.1, 125.34 70.15 M125.34 23.38 C125.25 35.98, 124.92 48.44, 125.34 70.15 M125.34 70.15 C125.42 83.83, 118.22 95.48, 101.95 93.53 M125.34 70.15 C124.62 85.26, 117.51 91.6, 101.95 93.53 M101.95 93.53 C76.42 95.68, 49.43 93.18, 23.38 93.53 M101.95 93.53 C76.21 93.33, 52.4 93.29, 23.38 93.53 M23.38 93.53 C9.3 95.38, -1.15 84.12, 0 70.15 M23.38 93.53 C6.37 94.3, -1.84 85.13, 0 70.15 M0 70.15 C2.22 52.56, -1.65 35.78, 0 23.38 M0 70.15 C-0.53 53.83, -0.09 38.31, 0 23.38 M0 23.38 C-1.88 5.9, 6 1.27, 23.38 0 M0 23.38 C0.22 7.26, 6.14 -2.06, 23.38 0" stroke="#1e1e1e" stroke-width="1" fill="none"></path></g><g transform="translate(1465.040604347484 887.0326531071175) rotate(0 30.100000381469727 25)"><text x="30.100000381469727" y="17.52" font-family="Virgil, Segoe UI Emoji" font-size="20px" fill="#1e1e1e" text-anchor="middle" style="white-space: pre;" direction="ltr" dominant-baseline="alphabetic">Pod B</text><text x="30.100000381469727" y="42.519999999999996" font-family="Virgil, Segoe UI Emoji" font-size="20px" fill="#1e1e1e" text-anchor="middle" style="white-space: pre;" direction="ltr" dominant-baseline="alphabetic">BDBA</text></g><g stroke-linecap="round" transform="translate(1251.9730263380252 779.1803651892053) rotate(0 189.3724295529414 315.7796288285486)"><path d="M32 0 C145.33 2.91, 257.58 1.64, 346.74 0 M32 0 C112.99 1.71, 192.68 1.63, 346.74 0 M346.74 0 C367.11 1.45, 378.62 11.9, 378.74 32 M346.74 0 C367.17 1.55, 378.73 8.56, 378.74 32 M378.74 32 C376.44 162.87, 376.37 292.85, 378.74 599.56 M378.74 32 C377.38 195.17, 377.5 359.49, 378.74 599.56 M378.74 599.56 C378.12 620.47, 368.05 629.88, 346.74 631.56 M378.74 599.56 C379.5 622.75, 369.73 632.28, 346.74 631.56 M346.74 631.56 C227.69 630.58, 109.52 629.29, 32 631.56 M346.74 631.56 C282.71 630.01, 217.19 628.78, 32 631.56 M32 631.56 C9.42 632.22, -1.6 620.36, 0 599.56 M32 631.56 C11.99 630.29, -2.27 623.15, 0 599.56 M0 599.56 C2.47 454.14, 1.77 308.05, 0 32 M0 599.56 C-0.39 456.18, -0.37 313.81, 0 32 M0 32 C0.19 10.2, 9.22 -1.79, 32 0 M0 32 C-0.21 9.65, 12.87 0.17, 32 0" stroke="#1e1e1e" stroke-width="1" fill="none"></path></g><g transform="translate(1355.2136381711694 787.225236342472) rotate(0 80.01667022705078 17.5)"><text x="0" y="24.528" font-family="Virgil, Segoe UI Emoji" font-size="28px" fill="#1e1e1e" text-anchor="start" style="white-space: pre;" direction="ltr" dominant-baseline="alphabetic">worker pods</text></g><g stroke-linecap="round"><g transform="translate(1569.448806013038 915.2896274729158) rotate(0 78.30165202576177 -1.0987039379888301)"><path d="M0.1 -0.54 C25.99 -0.66, 130.43 -1.65, 156.51 -1.66" stroke="#1e1e1e" stroke-width="1.5" fill="none" stroke-dasharray="8 9"></path></g></g><mask></mask><g stroke-linecap="round"><g transform="translate(1518.584549158958 1118.8429302088505) rotate(0 101.63548855614704 -0.32127704434100224)"><path d="M1 -0.85 C34.7 -0.73, 168.92 0.06, 202.27 0.21" stroke="#1e1e1e" stroke-width="1.5" fill="none" stroke-dasharray="8 9"></path></g></g><mask></mask><g transform="translate(1647.2170265936174 1093.3400692314883) rotate(0 25.21666717529297 12.5)"><text x="0" y="17.52" font-family="Virgil, Segoe UI Emoji" font-size="20px" fill="#1e1e1e" text-anchor="start" style="white-space: pre;" direction="ltr" dominant-baseline="alphabetic">scale</text></g><g stroke-linecap="round" transform="translate(1271.7038728284479 838.4580587650414) rotate(0 151.9169095802581 81.74954697157438)"><path d="M32 0 C124.45 -0.56, 217.89 0.14, 271.83 0 M32 0 C118.75 -2.11, 204.93 -2.11, 271.83 0 M271.83 0 C291.5 -0.56, 304.65 9.95, 303.83 32 M271.83 0 C292.52 -0.27, 302.43 9.83, 303.83 32 M303.83 32 C304.83 61.67, 302.47 92.56, 303.83 131.5 M303.83 32 C304.88 53.79, 304.95 74.84, 303.83 131.5 M303.83 131.5 C302.92 153.16, 293.24 165.41, 271.83 163.5 M303.83 131.5 C301.81 150.65, 293.55 161.23, 271.83 163.5 M271.83 163.5 C180.46 161.31, 92.33 161.02, 32 163.5 M271.83 163.5 C205.45 163.22, 140.35 161.61, 32 163.5 M32 163.5 C9.74 164.27, 0.42 151.86, 0 131.5 M32 163.5 C9.67 162.39, 0.01 152.47, 0 131.5 M0 131.5 C2.21 111.22, 0.48 89.11, 0 32 M0 131.5 C1.05 110.63, -0.04 90.05, 0 32 M0 32 C0.42 12.63, 11.61 -1.03, 32 0 M0 32 C-0.62 12.64, 11.55 -0.1, 32 0" stroke="#1e1e1e" stroke-width="1" fill="none"></path></g><g stroke-linecap="round"><g transform="translate(1952.103965440193 909.2101461806026) rotate(0 -33.62859435445989 -0.045134276420526476)"><path d="M-0.58 0.87 C-11.82 0.98, -56.35 0.75, -67.58 0.74 M1.31 0.29 C-10.08 0.05, -56.85 -0.76, -68.57 -0.99" stroke="#1e1e1e" stroke-width="1" fill="none"></path></g><g transform="translate(1952.103965440193 909.2101461806026) rotate(0 -33.62859435445989 -0.045134276420526476)"><path d="M-44.92 -9.11 C-50.26 -7.02, -57.28 -5.34, -68.57 -0.99 M-44.92 -9.11 C-54.31 -7.26, -63.12 -3.65, -68.57 -0.99" stroke="#1e1e1e" stroke-width="1" fill="none"></path></g><g transform="translate(1952.103965440193 909.2101461806026) rotate(0 -33.62859435445989 -0.045134276420526476)"><path d="M-45.24 7.99 C-50.5 5.17, -57.43 1.92, -68.57 -0.99 M-45.24 7.99 C-54.5 3.56, -63.2 0.9, -68.57 -0.99" stroke="#1e1e1e" stroke-width="1" fill="none"></path></g></g><mask></mask><g stroke-linecap="round"><g transform="translate(1951.6684534819879 1120.868957868163) rotate(0 -34.62477119370715 0.016569255583704035)"><path d="M-0.08 0.74 C-11.31 0.73, -56.74 1.11, -67.98 0.81 M-1.58 0.08 C-12.96 -0.34, -58.06 -0.82, -69.17 -0.89" stroke="#1e1e1e" stroke-width="1" fill="none"></path></g><g transform="translate(1951.6684534819879 1120.868957868163) rotate(0 -34.62477119370715 0.016569255583704035)"><path d="M-45.6 -9.22 C-50.23 -7.93, -56.05 -5.06, -69.17 -0.89 M-45.6 -9.22 C-51.4 -7.98, -55.07 -6.33, -69.17 -0.89" stroke="#1e1e1e" stroke-width="1" fill="none"></path></g><g transform="translate(1951.6684534819879 1120.868957868163) rotate(0 -34.62477119370715 0.016569255583704035)"><path d="M-45.76 7.88 C-50.48 4.87, -56.25 3.44, -69.17 -0.89 M-45.76 7.88 C-51.41 5.55, -55.05 3.65, -69.17 -0.89" stroke="#1e1e1e" stroke-width="1" fill="none"></path></g></g><mask></mask><g stroke-linecap="round" transform="translate(1295.9047337040774 1062.7257690397798) rotate(0 62.66778551826246 46.76700411810634)"><path d="M23.38 0 C47.8 0.3, 67.69 -1.09, 101.95 0 M23.38 0 C40.16 -0.14, 55.83 0.1, 101.95 0 M101.95 0 C116.32 -0.73, 125.42 5.89, 125.34 23.38 M101.95 0 C118.32 2.24, 124.62 7.31, 125.34 23.38 M125.34 23.38 C126.55 38.79, 125.57 52.91, 125.34 70.15 M125.34 23.38 C125.16 37.85, 124.24 49.47, 125.34 70.15 M125.34 70.15 C125.66 83.76, 119.05 95.38, 101.95 93.53 M125.34 70.15 C124.01 83.88, 116.11 94.3, 101.95 93.53 M101.95 93.53 C83.57 92.02, 69.34 93.12, 23.38 93.53 M101.95 93.53 C86.06 93.35, 69.33 93.36, 23.38 93.53 M23.38 93.53 C7.81 93.22, -1.88 83.84, 0 70.15 M23.38 93.53 C5.73 94.99, 0.22 85.2, 0 70.15 M0 70.15 C-0.47 61.41, 0.57 48.56, 0 23.38 M0 70.15 C0.37 53.61, -0.37 38.95, 0 23.38 M0 23.38 C0.77 7.7, 7.54 -1.28, 23.38 0 M0 23.38 C-1.4 8.17, 6.92 -0.58, 23.38 0" stroke="#1e1e1e" stroke-width="1" fill="none"></path></g><g transform="translate(1325.672517696461 1084.4927731578862) rotate(0 32.900001525878906 25)"><text x="32.900001525878906" y="17.52" font-family="Virgil, Segoe UI Emoji" font-size="20px" fill="#1e1e1e" text-anchor="middle" style="white-space: pre;" direction="ltr" dominant-baseline="alphabetic">Pod A</text><text x="32.900001525878906" y="42.519999999999996" font-family="Virgil, Segoe UI Emoji" font-size="20px" fill="#1e1e1e" text-anchor="middle" style="white-space: pre;" direction="ltr" dominant-baseline="alphabetic">Issues</text></g><g stroke-linecap="round" transform="translate(1277.3361257014858 1035.3858748952546) rotate(0 151.9169095802581 80.53636210485894)"><path d="M32 0 C102.28 0.01, 175.15 2.08, 271.83 0 M32 0 C94.82 -0.07, 158.69 -0.56, 271.83 0 M271.83 0 C293.84 1.95, 303.21 10.25, 303.83 32 M271.83 0 C293.14 -1.94, 304.59 12.52, 303.83 32 M303.83 32 C303.92 67.16, 304.47 104.22, 303.83 129.07 M303.83 32 C303.15 69.38, 303.73 109.67, 303.83 129.07 M303.83 129.07 C302.68 148.79, 291.92 161.74, 271.83 161.07 M303.83 129.07 C301.99 149.79, 294.49 159.81, 271.83 161.07 M271.83 161.07 C221.93 159.43, 175.85 160.55, 32 161.07 M271.83 161.07 C211.53 159.98, 150.44 159.32, 32 161.07 M32 161.07 C8.87 162.34, 0.19 149.94, 0 129.07 M32 161.07 C9.01 159.01, -0.21 149.39, 0 129.07 M0 129.07 C0.78 91.05, 1.89 53.14, 0 32 M0 129.07 C0.65 104.9, 0.13 80.18, 0 32 M0 32 C-1.22 11, 9.9 -0.51, 32 0 M0 32 C-1.32 11.94, 9.74 -0.26, 32 0" stroke="#1e1e1e" stroke-width="1" fill="none"></path></g><g transform="translate(1418.6016651668442 966.3323470612647) rotate(0 8.225000381469727 12.5)"><text x="0" y="17.52" font-family="Virgil, Segoe UI Emoji" font-size="20px" fill="#1e1e1e" text-anchor="start" style="white-space: pre;" direction="ltr" dominant-baseline="alphabetic">...</text></g><g transform="translate(1421.0280349002742 1166.1034551137466) rotate(0 8.225000381469727 12.5)"><text x="0" y="17.52" font-family="Virgil, Segoe UI Emoji" font-size="20px" fill="#1e1e1e" text-anchor="start" style="white-space: pre;" direction="ltr" dominant-baseline="alphabetic">...</text></g><g stroke-linecap="round" transform="translate(816.6781642556793 798.4386647478661) rotate(0 142.85039412687274 276.6103211807331)"><path d="M32 0 C107.39 -0.51, 182.57 0.62, 253.7 0 M32 0 C77.08 -2.04, 122.7 -2.59, 253.7 0 M253.7 0 C275.69 1.61, 287.13 11.29, 285.7 32 M253.7 0 C276.85 -0.25, 284.65 11.04, 285.7 32 M285.7 32 C286.86 180.57, 286.82 329.5, 285.7 521.22 M285.7 32 C284.27 224.02, 284.19 415.64, 285.7 521.22 M285.7 521.22 C286.85 541.45, 273.06 555.18, 253.7 553.22 M285.7 521.22 C284.7 540.37, 273.96 554.11, 253.7 553.22 M253.7 553.22 C181.75 552.4, 111.18 550.76, 32 553.22 M253.7 553.22 C208.3 554.23, 162.1 553.66, 32 553.22 M32 553.22 C10.48 552.34, 1.92 542.71, 0 521.22 M32 553.22 C10.35 554.2, 0.48 544.81, 0 521.22 M0 521.22 C1.77 351.66, 1.01 181.36, 0 32 M0 521.22 C1.08 405.65, 1 290.51, 0 32 M0 32 C-0.81 10.44, 9.77 1.35, 32 0 M0 32 C-2.13 8.97, 12.95 0.42, 32 0" stroke="#1e1e1e" stroke-width="1" fill="none"></path></g><g stroke-linecap="round"><g transform="translate(1286.0424235741475 913.1182875409238) rotate(0 -91.03212081534889 -0.8171982026807427)"><path d="M-0.73 -0.44 C-30.9 -0.6, -151.29 -1.41, -181.33 -1.15" stroke="#1e1e1e" stroke-width="1.5" fill="none" stroke-dasharray="8 9"></path></g></g><mask></mask><g stroke-linecap="round"><g transform="translate(1293.9297812392606 1112.297349410171) rotate(0 -94.40749152097874 0.011212017014656794)"><path d="M0.05 -1.15 C-31.3 -0.88, -157.25 1.02, -188.87 1.17" stroke="#1e1e1e" stroke-width="1.5" fill="none" stroke-dasharray="8 9"></path></g></g><mask></mask><g transform="translate(884.5390151842057 805.9847470831239) rotate(0 72.41666412353516 17.5)"><text x="0" y="24.528" font-family="Virgil, Segoe UI Emoji" font-size="28px" fill="#1e1e1e" text-anchor="start" style="white-space: pre;" direction="ltr" dominant-baseline="alphabetic">worker pod</text></g><g stroke-linecap="round" transform="translate(853.0036678611636 861.486958371677) rotate(0 104.38199963926786 28.066459117507065)"><path d="M14.03 0 C73.93 0.54, 132.98 1.22, 194.73 0 M14.03 0 C83.59 -0.67, 151.11 -0.4, 194.73 0 M194.73 0 C204.15 1.91, 207.01 2.78, 208.76 14.03 M194.73 0 C204.46 -2.27, 210.5 6.8, 208.76 14.03 M208.76 14.03 C209.2 19.24, 208 28.8, 208.76 42.1 M208.76 14.03 C208.05 19.96, 208.02 28.17, 208.76 42.1 M208.76 42.1 C209.18 50.48, 203.22 55.17, 194.73 56.13 M208.76 42.1 C208.78 51.09, 201.92 53.95, 194.73 56.13 M194.73 56.13 C156.27 54.86, 116.96 56.12, 14.03 56.13 M194.73 56.13 C148.37 56.7, 102.5 57.25, 14.03 56.13 M14.03 56.13 C5.62 55.1, -0.54 53.17, 0 42.1 M14.03 56.13 C5.56 56.03, -0.29 49.98, 0 42.1 M0 42.1 C-0.55 34.23, 1.06 27.87, 0 14.03 M0 42.1 C-0.8 33.26, 1.12 26.07, 0 14.03 M0 14.03 C1.91 4.59, 4.87 -0.3, 14.03 0 M0 14.03 C1.82 3.92, 3.2 1.26, 14.03 0" stroke="#1e1e1e" stroke-width="1" fill="none"></path></g><g transform="translate(934.5523335313155 877.0534174891841) rotate(0 22.83333396911621 12.5)"><text x="22.83333396911621" y="17.52" font-family="Virgil, Segoe UI Emoji" font-size="20px" fill="#1e1e1e" text-anchor="middle" style="white-space: pre;" direction="ltr" dominant-baseline="alphabetic">claim</text></g><g stroke-linecap="round" transform="translate(855.8418491202374 1087.5953986778857) rotate(0 104.38199963926786 28.066459117507065)"><path d="M14.03 0 C69.63 0.84, 122.63 0.99, 194.73 0 M14.03 0 C66.3 0.66, 117.61 -1.25, 194.73 0 M194.73 0 C204.42 -1.98, 210.27 6.52, 208.76 14.03 M194.73 0 C202.76 -1.86, 207.33 5.44, 208.76 14.03 M208.76 14.03 C207.59 18.24, 210.65 25.51, 208.76 42.1 M208.76 14.03 C208.84 19.3, 208.2 25.05, 208.76 42.1 M208.76 42.1 C208.78 51.14, 202.2 54.24, 194.73 56.13 M208.76 42.1 C206.7 52.91, 204.3 55.6, 194.73 56.13 M194.73 56.13 C152.66 57.89, 112.52 55.69, 14.03 56.13 M194.73 56.13 C133.28 57.39, 70.61 58.76, 14.03 56.13 M14.03 56.13 C5.45 56.04, -0.26 50.18, 0 42.1 M14.03 56.13 C3.28 56.51, -0.88 50.87, 0 42.1 M0 42.1 C-0.38 34.4, 1.2 26.64, 0 14.03 M0 42.1 C0.68 35.71, -0.18 29.25, 0 14.03 M0 14.03 C1.59 4.02, 3.39 1.09, 14.03 0 M0 14.03 C-0.52 6.3, 5.62 0.6, 14.03 0" stroke="#1e1e1e" stroke-width="1" fill="none"></path></g><g transform="translate(929.8571819656818 1103.1618577953927) rotate(0 30.366666793823242 12.5)"><text x="30.366666793823242" y="17.52" font-family="Virgil, Segoe UI Emoji" font-size="20px" fill="#1e1e1e" text-anchor="middle" style="white-space: pre;" direction="ltr" dominant-baseline="alphabetic">delete</text></g><g stroke-linecap="round" transform="translate(854.5804352273158 977.22168304724) rotate(0 104.38199963926786 28.066459117507065)"><path d="M14.03 0 C80.97 -2.34, 148.67 -1.36, 194.73 0 M14.03 0 C85.63 0.73, 157.65 2.64, 194.73 0 M194.73 0 C202.94 -1.61, 207.52 5.34, 208.76 14.03 M194.73 0 C202.25 -0.61, 210.09 3.41, 208.76 14.03 M208.76 14.03 C207.14 18.76, 209.81 25.76, 208.76 42.1 M208.76 14.03 C208.65 20.93, 207.7 27.2, 208.76 42.1 M208.76 42.1 C206.97 52.72, 204.28 55.67, 194.73 56.13 M208.76 42.1 C207.11 49.4, 203.87 55.12, 194.73 56.13 M194.73 56.13 C124.03 56.3, 53.58 56.83, 14.03 56.13 M194.73 56.13 C150.2 57.64, 104.77 57.04, 14.03 56.13 M14.03 56.13 C3.46 56.46, -0.76 50.95, 0 42.1 M14.03 56.13 C3.35 57.41, -0.93 51.2, 0 42.1 M0 42.1 C-1.67 36.92, 0.18 29.67, 0 14.03 M0 42.1 C0.77 33.47, -0.67 26.05, 0 14.03 M0 14.03 C-0.45 6.09, 5.5 0.53, 14.03 0 M0 14.03 C-0.61 6.95, 2.45 -2.08, 14.03 0" stroke="#1e1e1e" stroke-width="1" fill="none"></path></g><g transform="translate(922.8457699801093 992.7881421647471) rotate(0 36.11666488647461 12.5)"><text x="36.11666488647461" y="17.52" font-family="Virgil, Segoe UI Emoji" font-size="20px" fill="#1e1e1e" text-anchor="middle" style="white-space: pre;" direction="ltr" dominant-baseline="alphabetic">process</text></g><g stroke-linecap="round"><g transform="translate(959.5931418130449 916.9891696602306) rotate(0 -0.1464827721565598 31.470099078756846)"><path d="M0.04 1.14 C-0.04 11.33, -1.08 51.28, -1.05 61.3 M-1.4 0.7 C-1.07 10.97, 0.95 52.03, 1.1 62.24" stroke="#1e1e1e" stroke-width="1" fill="none"></path></g><g transform="translate(959.5931418130449 916.9891696602306) rotate(0 -0.1464827721565598 31.470099078756846)"><path d="M-8.25 39.06 C-3.93 43.19, -5.36 51.17, 1.1 62.24 M-8.25 39.06 C-6.77 42.83, -4.94 48.63, 1.1 62.24" stroke="#1e1e1e" stroke-width="1" fill="none"></path></g><g transform="translate(959.5931418130449 916.9891696602306) rotate(0 -0.1464827721565598 31.470099078756846)"><path d="M8.84 38.47 C8.82 42.76, 3.05 50.88, 1.1 62.24 M8.84 38.47 C6.89 42.51, 5.28 48.44, 1.1 62.24" stroke="#1e1e1e" stroke-width="1" fill="none"></path></g></g><mask></mask><g stroke-linecap="round"><g transform="translate(962.1159695988881 1035.5620755948673) rotate(0 -0.23102648958547434 25.46941162625933)"><path d="M-1.05 -1.14 C-1.03 7.2, -0.13 42.06, 0.2 51.16 M0.59 0.88 C0.47 9.83, -0.65 43.61, -0.65 52.08" stroke="#1e1e1e" stroke-width="1" fill="none"></path></g><g transform="translate(962.1159695988881 1035.5620755948673) rotate(0 -0.23102648958547434 25.46941162625933)"><path d="M-8.76 28.43 C-7.97 36, -5.59 44.36, -0.65 52.08 M-8.76 28.43 C-6.33 38.1, -3.33 46.78, -0.65 52.08" stroke="#1e1e1e" stroke-width="1" fill="none"></path></g><g transform="translate(962.1159695988881 1035.5620755948673) rotate(0 -0.23102648958547434 25.46941162625933)"><path d="M8.34 28.75 C3.94 36.08, 1.13 44.33, -0.65 52.08 M8.34 28.75 C4.06 38.16, 0.36 46.71, -0.65 52.08" stroke="#1e1e1e" stroke-width="1" fill="none"></path></g></g><mask></mask><g stroke-linecap="round"><g transform="translate(737.3565880360607 888.6415133629087) rotate(0 57.69677924647931 -0.7780716185366146)"><path d="M0.2 -1.19 C19.8 -1.13, 97.43 -0.53, 116.55 -0.82 M-1.16 0.81 C18.46 0.65, 96.91 -1.88, 116.08 -2.36" stroke="#1e1e1e" stroke-width="1" fill="none"></path></g><g transform="translate(737.3565880360607 888.6415133629087) rotate(0 57.69677924647931 -0.7780716185366146)"><path d="M92.84 6.86 C95.88 6.38, 104.63 1.76, 116.08 -2.36 M92.84 6.86 C97.19 4.5, 103.67 2.19, 116.08 -2.36" stroke="#1e1e1e" stroke-width="1" fill="none"></path></g><g transform="translate(737.3565880360607 888.6415133629087) rotate(0 57.69677924647931 -0.7780716185366146)"><path d="M92.35 -10.23 C95.33 -7.09, 104.19 -8.08, 116.08 -2.36 M92.35 -10.23 C96.7 -8.85, 103.28 -7.41, 116.08 -2.36" stroke="#1e1e1e" stroke-width="1" fill="none"></path></g></g><mask></mask><g stroke-linecap="round" transform="translate(645.9586002924048 744.0721508730846) rotate(0 36.60208652897791 29.83531422950307)"><path d="M14.92 0 C30.49 -1.48, 40.75 -1.57, 58.29 0 M14.92 0 C29.95 -0.43, 42.84 1.1, 58.29 0 M58.29 0 C67.36 -1.9, 72.27 5.75, 73.2 14.92 M58.29 0 C68.71 -1.12, 72.21 3.87, 73.2 14.92 M73.2 14.92 C71.26 22.09, 74.42 33.05, 73.2 44.75 M73.2 14.92 C72.9 22.73, 73.95 31.5, 73.2 44.75 M73.2 44.75 C72.93 55.55, 68.65 61.63, 58.29 59.67 M73.2 44.75 C74.29 53.51, 67.61 61.64, 58.29 59.67 M58.29 59.67 C42.33 58.4, 29.26 58.85, 14.92 59.67 M58.29 59.67 C45.97 59.8, 34.01 60.59, 14.92 59.67 M14.92 59.67 C3.12 58.19, 1.99 55.07, 0 44.75 M14.92 59.67 C7.17 59.57, 0.22 54.35, 0 44.75 M0 44.75 C1.19 32.99, 1.51 22.94, 0 14.92 M0 44.75 C-0.89 34.11, 0.21 24.32, 0 14.92 M0 14.92 C0.27 5.47, 3.16 1.96, 14.92 0 M0 14.92 C1.78 2.76, 5.8 -0.97, 14.92 0" stroke="#1e1e1e" stroke-width="1" fill="none"></path></g><g transform="translate(663.8606860584437 761.4074651025878) rotate(0 18.700000762939453 12.5)"><text x="18.700000762939453" y="17.52" font-family="Virgil, Segoe UI Emoji" font-size="20px" fill="#1e1e1e" text-anchor="middle" style="white-space: pre;" direction="ltr" dominant-baseline="alphabetic">BLI</text></g><g stroke-linecap="round"><g transform="translate(634.0664462547943 1112.470328103687) rotate(0 111.01197974976208 0.3065639343112707)"><path d="M-0.75 0.4 C36.13 0.51, 183.4 -0.14, 220.56 -0.32 M1.06 -0.44 C38.37 -0.07, 185.98 0.93, 222.77 1.05" stroke="#1e1e1e" stroke-width="1" fill="none"></path></g></g><mask></mask><g stroke-linecap="round"><g transform="translate(634.0664462547943 1110.544050970889) rotate(0 -0.09626334973904704 -203.39125462921282)"><path d="M-0.96 -0.32 C-0.72 -68.13, 0.73 -339.08, 0.69 -406.46 M0.74 -1.53 C0.94 -69.23, 0.05 -337.8, 0.11 -405.27" stroke="#1e1e1e" stroke-width="1" fill="none"></path></g><g transform="translate(634.0664462547943 1110.544050970889) rotate(0 -0.09626334973904704 -203.39125462921282)"><path d="M8.69 -381.79 C6.04 -386.29, 3.43 -395, 0.11 -405.27 M8.69 -381.79 C4.91 -390.83, 2.17 -401.05, 0.11 -405.27" stroke="#1e1e1e" stroke-width="1" fill="none"></path></g><g transform="translate(634.0664462547943 1110.544050970889) rotate(0 -0.09626334973904704 -203.39125462921282)"><path d="M-8.41 -381.77 C-7 -386.14, -5.54 -394.85, 0.11 -405.27 M-8.41 -381.77 C-5.39 -390.65, -1.32 -400.88, 0.11 -405.27" stroke="#1e1e1e" stroke-width="1" fill="none"></path></g></g><mask></mask><g stroke-linecap="round" transform="translate(646.9054728009692 814.8824924152402) rotate(0 36.60208652897791 29.83531422950307)"><path d="M14.92 0 C23.36 -2.22, 35.96 -1.12, 58.29 0 M14.92 0 C24.01 -0.65, 32.25 -0.65, 58.29 0 M58.29 0 C68.24 -0.32, 71.32 3.08, 73.2 14.92 M58.29 0 C66.17 1.46, 73.42 4.44, 73.2 14.92 M73.2 14.92 C72.05 23.64, 73.09 28.24, 73.2 44.75 M73.2 14.92 C73.74 24.63, 73 36.22, 73.2 44.75 M73.2 44.75 C73.97 54.61, 67.98 58.39, 58.29 59.67 M73.2 44.75 C71.81 55.08, 67.35 59.09, 58.29 59.67 M58.29 59.67 C47.55 58.6, 38.61 57.64, 14.92 59.67 M58.29 59.67 C49.43 59.71, 38.77 59.6, 14.92 59.67 M14.92 59.67 C6.56 59.01, -1.28 55.79, 0 44.75 M14.92 59.67 C4.46 61.3, 0.95 55.3, 0 44.75 M0 44.75 C-2.1 36.87, -2.23 28.71, 0 14.92 M0 44.75 C1.05 34.1, 0.63 24.94, 0 14.92 M0 14.92 C-1.69 4.75, 5.62 -1.66, 14.92 0 M0 14.92 C-0.91 3.43, 2.73 1.68, 14.92 0" stroke="#1e1e1e" stroke-width="1" fill="none"></path></g><g transform="translate(664.8075585670072 832.2178066447434) rotate(0 18.700000762939453 12.5)"><text x="18.700000762939453" y="17.52" font-family="Virgil, Segoe UI Emoji" font-size="20px" fill="#1e1e1e" text-anchor="middle" style="white-space: pre;" direction="ltr" dominant-baseline="alphabetic">BLI</text></g><g transform="translate(676.5667437036759 881.0168273422967) rotate(0 8.225000381469727 12.5)"><text x="0" y="17.52" font-family="Virgil, Segoe UI Emoji" font-size="20px" fill="#1e1e1e" text-anchor="start" style="white-space: pre;" direction="ltr" dominant-baseline="alphabetic">...</text></g><g stroke-linecap="round"><g transform="translate(736.1591342930965 704.0995759504774) rotate(0 0.3913805544311799 93.25911095886386)"><path d="M-0.56 0.46 C-0.43 31.59, 0.24 154.76, 0.25 185.62 M1.35 -0.34 C1.39 31.04, -0.08 155.69, -0.57 186.86" stroke="#1e1e1e" stroke-width="1" fill="none"></path></g></g><mask></mask><g stroke-linecap="round"><g transform="translate(961.5030053412047 798.7318517385372) rotate(0 -0.7474638435924135 -35.27130495303595)"><path d="M0.25 -0.58 C0.26 -12.7, -0.48 -60.39, -0.52 -72.27 M-1.08 1.73 C-1.23 -10.28, -1.8 -58.97, -1.74 -71.03" stroke="#1e1e1e" stroke-width="1" fill="none"></path></g></g><mask></mask><g stroke-linecap="round"><g transform="translate(961.5030053412047 726.2852623824922) rotate(0 126.14806850864238 0.6308043324329446)"><path d="M-0.52 -0.58 C41.57 -0.51, 210.78 -0.1, 252.82 -0.19 M1.41 1.74 C43.32 2.04, 209.78 1.61, 251.87 1.25" stroke="#1e1e1e" stroke-width="1" fill="none"></path></g></g><mask></mask><g stroke-linecap="round"><g transform="translate(1212.0474601975275 616.8090261242676) rotate(0 -0.23002168200923734 -148.92721191427438)"><path d="M0.01 -0.19 C-0.09 -49.7, -0.95 -248.4, -1.13 -297.66 M-1.45 -1.34 C-1.15 -50.69, 0.54 -247.33, 0.99 -296.72" stroke="#1e1e1e" stroke-width="1" fill="none"></path></g><g transform="translate(1212.0474601975275 616.8090261242676) rotate(0 -0.23002168200923734 -148.92721191427438)"><path d="M9.33 -273.16 C6.99 -281.09, 3.26 -287.05, 0.99 -296.72 M9.33 -273.16 C5.56 -282.64, 3.15 -290.75, 0.99 -296.72" stroke="#1e1e1e" stroke-width="1" fill="none"></path></g><g transform="translate(1212.0474601975275 616.8090261242676) rotate(0 -0.23002168200923734 -148.92721191427438)"><path d="M-7.77 -273.31 C-5.73 -281.2, -5.06 -287.12, 0.99 -296.72 M-7.77 -273.31 C-5.33 -282.69, -1.52 -290.75, 0.99 -296.72" stroke="#1e1e1e" stroke-width="1" fill="none"></path></g></g><mask></mask><g stroke-linecap="round"><g transform="translate(1211.4306676567894 617.7162059663449) rotate(0 -14.955784057753363 -0.060808737524780554)"><path d="M-0.52 -0.52 C-5.54 -0.45, -25.28 0.28, -30.13 0.35 M0.22 0.4 C-4.64 0.33, -24.13 -0.44, -29.15 -0.44" stroke="#1e1e1e" stroke-width="1" fill="none"></path></g></g><mask></mask><g stroke-linecap="round"><g transform="translate(1182.0985194296209 618.9257790891149) rotate(0 -0.25401441386156876 25.71140545518449)"><path d="M-1.08 0.76 C-0.87 9.27, 0.08 41.86, 0.11 49.92 M0.56 0.11 C0.72 8.9, -0.94 43.01, -0.77 51.31" stroke="#1e1e1e" stroke-width="1" fill="none"></path></g></g><mask></mask><g stroke-linecap="round"><g transform="translate(1183.9128791137755 668.518277122678) rotate(0 14.085701012450272 -0.365727418419624)"><path d="M0.05 -0.13 C4.76 -0.27, 23.06 -0.47, 27.73 -0.49 M-0.58 -0.67 C4.33 -0.79, 24.04 -0.2, 28.76 -0.05" stroke="#1e1e1e" stroke-width="1" fill="none"></path></g></g><mask></mask><g stroke-linecap="round"><g transform="translate(1212.6402407795586 668.8206704033703) rotate(0 -0.11818143735126796 28.40314291601817)"><path d="M-0.87 -1.07 C-0.9 8.41, -0.45 46.9, -0.11 56.62 M0.88 0.98 C0.67 10.64, -1.14 48.28, -1.12 57.88" stroke="#1e1e1e" stroke-width="1" fill="none"></path></g></g><mask></mask><g transform="translate(1070.3442401263783 698.0121138319907) rotate(0 22.125 12.5)"><text x="0" y="17.52" font-family="Virgil, Segoe UI Emoji" font-size="20px" fill="#1e1e1e" text-anchor="start" style="white-space: pre;" direction="ltr" dominant-baseline="alphabetic">read</text></g><g transform="translate(1093.1918411652355 203.59403544557154) rotate(0 124.30000305175781 17.5)"><text x="0" y="24.528" font-family="Virgil, Segoe UI Emoji" font-size="28px" fill="#1e1e1e" text-anchor="start" style="white-space: pre;" direction="ltr" dominant-baseline="alphabetic">scan configuration</text></g><g transform="translate(1135.0382288443725 252.19859674833538) rotate(0 64.50833129882812 17.5)"><text x="0" y="24.528" font-family="Virgil, Segoe UI Emoji" font-size="28px" fill="#e03131" text-anchor="start" style="white-space: pre;" direction="ltr" dominant-baseline="alphabetic">+ diki cfg</text></g><g stroke-linecap="round" transform="translate(545.7415179744889 491.55538146686376) rotate(0 89.97328614760045 32.31084861654165)"><path d="M16.16 0 C69.64 1.84, 126.9 2.13, 163.79 0 M16.16 0 C68.93 0.6, 119.79 -0.24, 163.79 0 M163.79 0 C173.94 0.27, 180.03 5.57, 179.95 16.16 M163.79 0 C173.85 -0.02, 177.97 6.79, 179.95 16.16 M179.95 16.16 C178.33 28.87, 180.81 39.99, 179.95 48.47 M179.95 16.16 C179.29 23.57, 180.34 31.28, 179.95 48.47 M179.95 48.47 C181.08 61.09, 174.96 65.42, 163.79 64.62 M179.95 48.47 C181.32 57.23, 172.4 62.38, 163.79 64.62 M163.79 64.62 C128.82 67.7, 98.75 65.92, 16.16 64.62 M163.79 64.62 C106.85 65.27, 49.32 65.51, 16.16 64.62 M16.16 64.62 C3.39 64.89, 1.57 57.4, 0 48.47 M16.16 64.62 C6.02 64.07, 1.2 58.69, 0 48.47 M0 48.47 C-1.28 35.87, 0.97 24.06, 0 16.16 M0 48.47 C-0.43 37.08, -0.62 25.1, 0 16.16 M0 16.16 C-1.51 4, 6.37 1.56, 16.16 0 M0 16.16 C-1.11 6.49, 3.3 -1.84, 16.16 0" stroke="#1e1e1e" stroke-width="1" fill="none"></path></g><g transform="translate(577.2946243687893 502.33554231912126) rotate(0 59.45833206176758 12.5)"><text x="0" y="17.52" font-family="Virgil, Segoe UI Emoji" font-size="20px" fill="#1e1e1e" text-anchor="start" style="white-space: pre;" direction="ltr" dominant-baseline="alphabetic">backlog item</text></g><g stroke-linecap="round"><g transform="translate(725.1910002909731 522.872050125974) rotate(0 13.083367187637577 0.3533355536410454)"><path d="M0.25 0.28 C4.63 0.29, 22.03 0.02, 26.45 0.03 M-0.28 -0.05 C4.03 0.05, 21.63 0.82, 26.12 0.75" stroke="#1e1e1e" stroke-width="1" fill="none"></path></g></g><mask></mask><g transform="translate(615.282107081116 527.1183273441159) rotate(0 14.941666603088379 12.5)"><text x="0" y="17.52" font-family="Virgil, Segoe UI Emoji" font-size="20px" fill="#e03131" text-anchor="start" style="white-space: pre;" direction="ltr" dominant-baseline="alphabetic">diki</text></g><g stroke-linecap="round" transform="translate(1722.5164444891348 1268.8710808290384) rotate(0 83.03988234265762 44.37581014078518)"><path d="M22.19 0 C54.71 -1.1, 90.56 -0.18, 143.89 0 M22.19 0 C53.02 0.05, 85.18 1.64, 143.89 0 M143.89 0 C160.33 1.58, 166.3 7.78, 166.08 22.19 M143.89 0 C159.3 -0.16, 164.29 7.26, 166.08 22.19 M166.08 22.19 C165.45 37.34, 167.22 55.11, 166.08 66.56 M166.08 22.19 C165.26 37.76, 166.56 52.15, 166.08 66.56 M166.08 66.56 C165.34 81.18, 159.23 87.76, 143.89 88.75 M166.08 66.56 C165.84 81.19, 158.69 87.3, 143.89 88.75 M143.89 88.75 C115.59 87.63, 88.07 86.9, 22.19 88.75 M143.89 88.75 C109.12 88.79, 74.93 89.56, 22.19 88.75 M22.19 88.75 C5.8 90.6, 0 82.44, 0 66.56 M22.19 88.75 C7.12 89, 1 81.43, 0 66.56 M0 66.56 C-0.17 58.91, -0.16 47.38, 0 22.19 M0 66.56 C-0.51 49.35, 0.42 30.79, 0 22.19 M0 22.19 C-1.78 5.92, 9.22 1.82, 22.19 0 M0 22.19 C1.63 9.47, 6.8 1.93, 22.19 0" stroke="#e03131" stroke-width="1" fill="none"></path></g><g transform="translate(1752.393227554218 1285.566930188938) rotate(0 51.86666488647461 25)"><text x="0" y="17.52" font-family="Virgil, Segoe UI Emoji" font-size="20px" fill="#e03131" text-anchor="start" style="white-space: pre;" direction="ltr" dominant-baseline="alphabetic">replica-set</text><text x="0" y="42.519999999999996" font-family="Virgil, Segoe UI Emoji" font-size="20px" fill="#e03131" text-anchor="start" style="white-space: pre;" direction="ltr" dominant-baseline="alphabetic">diki</text></g><g stroke-linecap="round"><g transform="translate(1582.2175174077574 1310.9442736090423) rotate(0 71.85071905063319 -0.5870102483779078)"><path d="M0.22 -0.51 C24.19 -0.71, 119.82 -0.63, 143.48 -0.66" stroke="#e03131" stroke-width="1.5" fill="none" stroke-dasharray="8 9"></path></g></g><mask></mask><g transform="translate(1651.388746469424 1285.4414126316801) rotate(0 25.21666717529297 12.5)"><text x="0" y="17.52" font-family="Virgil, Segoe UI Emoji" font-size="20px" fill="#e03131" text-anchor="start" style="white-space: pre;" direction="ltr" dominant-baseline="alphabetic">scale</text></g><g stroke-linecap="round"><g transform="translate(1955.8401733577944 1312.970301268355) rotate(0 -33.313459533056175 0.36844150369825)"><path d="M-0.61 -0.74 C-11.92 -0.44, -56.15 0.87, -67.14 1.16 M1.26 1.48 C-10.22 1.54, -56.55 0.03, -67.89 -0.36" stroke="#1e1e1e" stroke-width="1" fill="none"></path></g><g transform="translate(1955.8401733577944 1312.970301268355) rotate(0 -33.313459533056175 0.36844150369825)"><path d="M-44.13 -8.14 C-53.87 -4.88, -59.16 -1.07, -67.89 -0.36 M-44.13 -8.14 C-52.86 -5.21, -62.92 -2.25, -67.89 -0.36" stroke="#1e1e1e" stroke-width="1" fill="none"></path></g><g transform="translate(1955.8401733577944 1312.970301268355) rotate(0 -33.313459533056175 0.36844150369825)"><path d="M-44.69 8.96 C-54.14 6.13, -59.23 3.86, -67.89 -0.36 M-44.69 8.96 C-53.23 5.4, -63.07 1.88, -67.89 -0.36" stroke="#1e1e1e" stroke-width="1" fill="none"></path></g></g><mask></mask><g stroke-linecap="round" transform="translate(1300.076453579884 1254.8271124399716) rotate(0 62.66778551826269 46.76700411810634)"><path d="M23.38 0 C44.86 1.41, 64.06 -0.02, 101.95 0 M23.38 0 C47.67 0, 74.01 0.11, 101.95 0 M101.95 0 C117.55 -0.65, 124.96 8.91, 125.34 23.38 M101.95 0 C119.68 1.11, 123.27 7.78, 125.34 23.38 M125.34 23.38 C123.46 34.68, 125.21 48.01, 125.34 70.15 M125.34 23.38 C125.29 34.48, 124.57 46.64, 125.34 70.15 M125.34 70.15 C124.15 85.2, 117.15 93.23, 101.95 93.53 M125.34 70.15 C124.03 85.34, 116.59 93.51, 101.95 93.53 M101.95 93.53 C82.81 91.83, 62.26 93.44, 23.38 93.53 M101.95 93.53 C74.56 93.65, 45.36 93.03, 23.38 93.53 M23.38 93.53 C7.26 93.1, 1.51 85.32, 0 70.15 M23.38 93.53 C6.81 95.71, 1.26 86.48, 0 70.15 M0 70.15 C-1.66 55.59, -1.62 46.41, 0 23.38 M0 70.15 C-0.59 52.71, 0.31 34.52, 0 23.38 M0 23.38 C-1.63 9.16, 6.03 1.36, 23.38 0 M0 23.38 C-0.25 6.03, 6.59 0.34, 23.38 0" stroke="#e03131" stroke-width="1" fill="none"></path></g><g transform="translate(1333.3442394796161 1276.594116558078) rotate(0 29.399999618530273 25)"><text x="29.399999618530273" y="17.52" font-family="Virgil, Segoe UI Emoji" font-size="20px" fill="#e03131" text-anchor="middle" style="white-space: pre;" direction="ltr" dominant-baseline="alphabetic">Pod A</text><text x="29.399999618530273" y="42.519999999999996" font-family="Virgil, Segoe UI Emoji" font-size="20px" fill="#e03131" text-anchor="middle" style="white-space: pre;" direction="ltr" dominant-baseline="alphabetic">diki</text></g><g stroke-linecap="round" transform="translate(1281.5078455772923 1227.4872182954464) rotate(0 151.9169095802581 80.53636210485894)"><path d="M32 0 C124.06 0.23, 215.37 -1.52, 271.83 0 M32 0 C102.58 -0.37, 173 0.36, 271.83 0 M271.83 0 C295.03 0.97, 302.04 10.65, 303.83 32 M271.83 0 C292.19 0.24, 305.86 8.45, 303.83 32 M303.83 32 C302.76 57.33, 303.61 83.07, 303.83 129.07 M303.83 32 C302.54 54.74, 302.94 77.86, 303.83 129.07 M303.83 129.07 C302.7 150.06, 292.34 161.06, 271.83 161.07 M303.83 129.07 C303.01 150.52, 292.87 162.95, 271.83 161.07 M271.83 161.07 C219.98 160.87, 166.5 161.8, 32 161.07 M271.83 161.07 C198.92 159.73, 127.09 159.73, 32 161.07 M32 161.07 C9.81 162.96, 1.09 151.05, 0 129.07 M32 161.07 C10.05 161.75, 1.52 148.66, 0 129.07 M0 129.07 C2.54 109.99, 2.52 87.55, 0 32 M0 129.07 C-1.43 92.48, -1.5 55.19, 0 32 M0 32 C-0.22 9.13, 9.62 0.29, 32 0 M0 32 C0.28 9.32, 8.73 2.19, 32 0" stroke="#e03131" stroke-width="1" fill="none"></path></g><g transform="translate(1425.1997547760807 1358.2047985139384) rotate(0 8.225000381469727 12.5)"><text x="0" y="17.52" font-family="Virgil, Segoe UI Emoji" font-size="20px" fill="#e03131" text-anchor="start" style="white-space: pre;" direction="ltr" dominant-baseline="alphabetic">...</text></g><g stroke-linecap="round"><g transform="translate(1298.101501115067 1304.3986928103627) rotate(0 -94.80305852312608 0.0018944443783084353)"><path d="M-0.93 -0.07 C-32.43 -0.04, -157.28 0.11, -188.67 0.06" stroke="#1e1e1e" stroke-width="1.5" fill="none" stroke-dasharray="8 9"></path></g></g><mask></mask><g stroke-linecap="round" transform="translate(55.782696859493626 202.76332040042894) rotate(0 173.85777501929806 479.51096013387064)"><path d="M32 0 C125.57 -2.28, 217.72 -2.73, 315.72 0 M32 0 C127.15 -1.33, 223.46 -1.6, 315.72 0 M315.72 0 C337.4 -0.51, 346.92 12.41, 347.72 32 M315.72 0 C335.86 0.36, 345.55 12.11, 347.72 32 M347.72 32 C347.4 217.92, 347.14 403.01, 347.72 927.02 M347.72 32 C351.12 309.02, 351.58 586.48, 347.72 927.02 M347.72 927.02 C346.99 948.4, 338.45 959.21, 315.72 959.02 M347.72 927.02 C349.19 949.81, 337.61 960.09, 315.72 959.02 M315.72 959.02 C219.49 960.92, 123.48 960.64, 32 959.02 M315.72 959.02 C208.21 956.86, 100.95 957.48, 32 959.02 M32 959.02 C8.75 958.11, -1.45 947.76, 0 927.02 M32 959.02 C9.4 956.99, -1.33 946.9, 0 927.02 M0 927.02 C2.31 591.82, 2.09 257.05, 0 32 M0 927.02 C0.8 700.25, 1.35 473.2, 0 32 M0 32 C-1.83 11.95, 11.22 -1.02, 32 0 M0 32 C2.2 11.84, 12.01 -0.01, 32 0" stroke="#1e1e1e" stroke-width="1" fill="none"></path></g><g transform="translate(123.66010512522007 602.17033899426) rotate(0 99.0250015258789 52.5)"><text x="99.0250015258789" y="24.528" font-family="Virgil, Segoe UI Emoji" font-size="28px" fill="#1e1e1e" text-anchor="middle" style="white-space: pre;" direction="ltr" dominant-baseline="alphabetic">Delivery</text><text x="99.0250015258789" y="59.528" font-family="Virgil, Segoe UI Emoji" font-size="28px" fill="#1e1e1e" text-anchor="middle" style="white-space: pre;" direction="ltr" dominant-baseline="alphabetic">Service</text><text x="99.0250015258789" y="94.52799999999999" font-family="Virgil, Segoe UI Emoji" font-size="28px" fill="#1e1e1e" text-anchor="middle" style="white-space: pre;" direction="ltr" dominant-baseline="alphabetic">(+Delivery-DB)</text></g><g stroke-linecap="round"><g transform="translate(586.8593238741546 271.75397865765194) rotate(0 -90.23381951777787 0.0023596655577193815)"><path d="M1.15 -1.02 C-29.17 -0.91, -150.28 0.46, -180.81 0.7 M0.29 1.05 C-30.25 0.82, -151.62 -0.59, -181.62 -1.05" stroke="#1e1e1e" stroke-width="1" fill="none"></path></g><g transform="translate(586.8593238741546 271.75397865765194) rotate(0 -90.23381951777787 0.0023596655577193815)"><path d="M-158.01 -9.29 C-168.92 -5.39, -175.24 -4.26, -181.62 -1.05 M-158.01 -9.29 C-166.36 -5.45, -173.39 -4.58, -181.62 -1.05" stroke="#1e1e1e" stroke-width="1" fill="none"></path></g><g transform="translate(586.8593238741546 271.75397865765194) rotate(0 -90.23381951777787 0.0023596655577193815)"><path d="M-158.24 7.81 C-169.06 5.04, -175.29 -0.49, -181.62 -1.05 M-158.24 7.81 C-166.65 5.91, -173.61 1.04, -181.62 -1.05" stroke="#1e1e1e" stroke-width="1" fill="none"></path></g></g><mask></mask><g transform="translate(484.60674234728685 246.10806896219628) rotate(0 16.58333396911621 12.5)"><text x="16.58333396911621" y="17.52" font-family="Virgil, Segoe UI Emoji" font-size="20px" fill="#1e1e1e" text-anchor="middle" style="white-space: pre;" direction="ltr" dominant-baseline="alphabetic">use</text></g><g stroke-linecap="round"><g transform="translate(855.4201825906202 1005.380956383977) rotate(0 -94.63184405688162 0.4680909363858632)"><path d="M0.27 1.19 C-31.19 1.29, -157.95 -0.09, -189.53 -0.26 M-1.05 0.77 C-32.08 1.13, -156.42 1.01, -187.37 1.15" stroke="#1e1e1e" stroke-width="1" fill="none"></path></g></g><mask></mask><g stroke-linecap="round"><g transform="translate(668.0808622085074 1005.3487601320951) rotate(0 0.19445950680005808 -13.333386794919363)"><path d="M0.39 -0.25 C0.38 -4.78, -0.35 -23.06, -0.34 -27.47 M-0.07 0.81 C0.11 -3.63, 0.64 -22.21, 0.73 -26.93" stroke="#1e1e1e" stroke-width="1" fill="none"></path></g></g><mask></mask><g stroke-linecap="round"><g transform="translate(669.334399906435 977.7709307776769) rotate(0 -32.98752142662988 -0.502222509223202)"><path d="M1.12 -0.25 C-10.05 -0.36, -55.08 -0.86, -66.39 -0.73 M0.26 -1.42 C-11.09 -1.39, -55.81 0.44, -67.1 0.42" stroke="#1e1e1e" stroke-width="1" fill="none"></path></g></g><mask></mask><g stroke-linecap="round"><g transform="translate(603.7325937148644 977.3530848783676) rotate(0 -0.29120642160546595 15.17227506515377)"><path d="M-0.07 0.34 C0.01 5.33, 0.15 25.43, 0.19 30.31 M-0.77 0.04 C-0.72 4.84, -0.25 24.47, -0.14 29.46" stroke="#1e1e1e" stroke-width="1" fill="none"></path></g></g><mask></mask><g stroke-linecap="round"><g transform="translate(604.9861314127925 1005.3487601320951) rotate(0 -100.3218295513177 -0.5114644905365822)"><path d="M0.11 -1.2 C-33.42 -1.28, -167.18 0.2, -200.75 0.2 M-1.29 0.79 C-34.45 0.25, -165.4 -1.61, -198.36 -1.81" stroke="#1e1e1e" stroke-width="1" fill="none"></path></g><g transform="translate(604.9861314127925 1005.3487601320951) rotate(0 -100.3218295513177 -0.5114644905365822)"><path d="M-174.78 -10.11 C-184.58 -8.33, -190.1 -6.49, -198.36 -1.81 M-174.78 -10.11 C-178.89 -8.92, -185.15 -5.98, -198.36 -1.81" stroke="#1e1e1e" stroke-width="1" fill="none"></path></g><g transform="translate(604.9861314127925 1005.3487601320951) rotate(0 -100.3218295513177 -0.5114644905365822)"><path d="M-174.96 6.99 C-184.81 3.07, -190.26 -0.78, -198.36 -1.81 M-174.96 6.99 C-179.15 4.7, -185.38 4.14, -198.36 -1.81" stroke="#1e1e1e" stroke-width="1" fill="none"></path></g></g><mask></mask><g transform="translate(758.7868109409546 981.5456131539494) rotate(0 16.58333396911621 12.5)"><text x="16.58333396911621" y="17.52" font-family="Virgil, Segoe UI Emoji" font-size="20px" fill="#1e1e1e" text-anchor="middle" style="white-space: pre;" direction="ltr" dominant-baseline="alphabetic">use</text></g><g stroke-linecap="round" transform="translate(1441.9239070689136 1256.2913990194113) rotate(0 62.66778551826246 46.76700411810634)"><path d="M23.38 0 C42.95 -1.92, 66.36 -1.29, 101.95 0 M23.38 0 C52 0.69, 80.77 -1.07, 101.95 0 M101.95 0 C116.4 0.85, 125.68 6.69, 125.34 23.38 M101.95 0 C115.43 -0.37, 123.63 8.9, 125.34 23.38 M125.34 23.38 C125.76 36.23, 124.67 45, 125.34 70.15 M125.34 23.38 C124.62 37.81, 125.28 52.04, 125.34 70.15 M125.34 70.15 C127.11 87.28, 117.84 93.04, 101.95 93.53 M125.34 70.15 C126.85 87.42, 117.39 92.96, 101.95 93.53 M101.95 93.53 C83.13 94.66, 66.81 91.8, 23.38 93.53 M101.95 93.53 C76.96 94.44, 52.68 93.44, 23.38 93.53 M23.38 93.53 C9.71 94.06, -0.66 85.02, 0 70.15 M23.38 93.53 C9.16 94.16, -2.03 87.89, 0 70.15 M0 70.15 C1.69 52.82, 1.55 35.19, 0 23.38 M0 70.15 C-0.18 53.18, -0.11 37.74, 0 23.38 M0 23.38 C-1.73 8.94, 8 -0.53, 23.38 0 M0 23.38 C-0.09 6.04, 6.4 0.35, 23.38 0" stroke="#e03131" stroke-width="1" fill="none"></path></g><g transform="translate(1475.1916929686458 1278.0584031375176) rotate(0 29.399999618530273 25)"><text x="29.399999618530273" y="17.52" font-family="Virgil, Segoe UI Emoji" font-size="20px" fill="#e03131" text-anchor="middle" style="white-space: pre;" direction="ltr" dominant-baseline="alphabetic">Pod A</text><text x="29.399999618530273" y="42.519999999999996" font-family="Virgil, Segoe UI Emoji" font-size="20px" fill="#e03131" text-anchor="middle" style="white-space: pre;" direction="ltr" dominant-baseline="alphabetic">diki</text></g></svg>